<?xml version="1.0" standalone="no"?>
<!DOCTYPE svg PUBLIC "-//W3C//DTD SVG 20010904//EN"
 "http://www.w3.org/TR/2001/REC-SVG-20010904/DTD/svg10.dtd">
<svg version="1.0" xmlns="http://www.w3.org/2000/svg"
 width="700.000000pt" height="700.000000pt" viewBox="0 0 700.000000 700.000000"
 preserveAspectRatio="xMidYMid meet">
<metadata>
Created by potrace 1.11, written by Peter Selinger 2001-2013
</metadata>
<g transform="translate(0.000000,700.000000) scale(0.100000,-0.100000)"
fill="#000000" stroke="none">
<path d="M0 3500 l0 -3500 3500 0 3500 0 0 3500 0 3500 -3500 0 -3500 0 0
-3500z m2335 1766 c491 -95 792 -413 836 -884 20 -219 -6 -396 -82 -552 -58
-118 -176 -236 -302 -300 l-87 -45 2 -49 3 -50 57 -12 c32 -8 76 -23 99 -35
55 -28 134 -103 166 -156 52 -90 53 -97 53 -800 l0 -653 -330 0 -330 0 0 558
c0 632 0 630 -72 708 -67 73 -77 74 -565 74 l-423 0 0 -670 0 -670 -330 0
-330 0 0 1781 0 1780 773 -4 c683 -3 782 -5 862 -21z m3044 13 c200 -19 400
-85 536 -179 217 -149 342 -377 364 -663 17 -217 -15 -398 -95 -528 -73 -120
-242 -253 -399 -313 -101 -39 -100 -38 -100 -87 l0 -43 70 -26 c151 -57 241
-115 345 -226 115 -122 163 -235 179 -420 31 -359 -79 -656 -313 -840 -130
-103 -338 -188 -520 -213 -50 -7 -375 -11 -922 -11 l-844 0 0 315 0 315 165 0
165 0 0 1145 0 1145 -165 0 -165 0 0 320 0 320 793 0 c483 0 836 -4 906 -11z"/>
<path d="M1360 4179 l0 -470 408 3 407 3 68 27 c125 48 195 115 238 226 34 87
39 276 10 370 -34 113 -113 207 -218 261 -91 46 -144 51 -540 51 l-373 0 0
-471z"/>
<path d="M4680 4240 l0 -410 293 0 c318 0 379 7 488 56 72 33 140 103 164 172
11 28 19 91 22 159 5 94 2 122 -16 181 -26 88 -77 147 -163 190 -106 54 -168
62 -495 62 l-293 0 0 -410z"/>
<path d="M4680 2781 l0 -421 278 0 c193 1 301 5 356 15 151 27 265 106 308
215 30 74 33 286 5 367 -24 68 -82 132 -155 171 -104 55 -156 63 -489 69
l-303 6 0 -422z"/>
</g>
</svg>
